<?xml version="1.0" encoding="UTF-8" standalone="no"?>
<svg
   xmlns:dc="http://purl.org/dc/elements/1.1/"
   xmlns:cc="http://creativecommons.org/ns#"
   xmlns:rdf="http://www.w3.org/1999/02/22-rdf-syntax-ns#"
   xmlns:svg="http://www.w3.org/2000/svg"
   xmlns="http://www.w3.org/2000/svg"
   viewBox="0 0 480 480"
   height="480"
   width="480"
   xml:space="preserve"
   id="svg2"
   version="1.1"><metadata
     id="metadata8"><rdf:RDF><cc:Work
         rdf:about=""><dc:format>image/svg+xml</dc:format><dc:type
           rdf:resource="http://purl.org/dc/dcmitype/StillImage" /></cc:Work></rdf:RDF></metadata><defs
     id="defs6"><clipPath
       id="clipPath18"
       clipPathUnits="userSpaceOnUse"><path
         id="path16"
         d="M 0,360 H 360 V 0 H 0 Z" /></clipPath></defs><g
     transform="matrix(1.3333333,0,0,-1.3333333,0,480)"
     id="g10"><g
       id="g12"><g
         clip-path="url(#clipPath18)"
         id="g14"><g
           transform="translate(209.7852,217.5493)"
           id="g20"><path
             id="path22"
             style="fill:#362e2d;fill-opacity:1;fill-rule:nonzero;stroke:none"
             d="m 0,0 -9.505,-15.246 h -17.229 v 47.36 H 0 Z m -62.901,-28.547 6.632,-18.623 h -13.265 z m 3.197,47.041 h 7.462 c 3.402,0 5.879,-0.745 7.43,-2.232 1.553,-1.489 2.329,-3.785 2.329,-6.889 0,-3.061 -0.809,-5.336 -2.424,-6.824 -1.616,-1.488 -4.061,-2.232 -7.335,-2.232 h -7.462 z M 5.792,38.237 H 0 -91.66 V 35.175 32.114 -108.54 l 6.684,18.054 13.529,37.831 h 17.092 l 0.862,-2.433 h 6.34 l -12.551,35 v 14.984 h 8.355 c 4.72,0 8.42,1.189 11.098,3.571 2.678,2.381 4.019,6.038 4.019,10.971 0,5.016 -1.331,8.684 -3.986,11.001 -2.659,2.317 -6.368,3.476 -11.131,3.476 h -14.733 v -43.979 h -0.008 l -15.947,-44.476 -10e-4,0.001 -0.061,-0.17 h 0.001 l -3.44,-9.594 V 32.114 h 52.744 V -20.73 h 19.87 l -12.088,-19.39 -8.863,14.512 h -6.888 l 12.752,-20.442 v -14.765 h 6.06 v 14.765 l 17.876,28.556 10.197,16.437 v 39.294 z" /></g><g
           transform="translate(209.7852,118.9658)"
           id="g24"><path
             id="path26"
             style="fill:#f68712;fill-opacity:1;fill-rule:nonzero;stroke:none"
             d="m 0,0 -22.004,33.42 h -6.04 v -47.176 h -57.494 v 9.827 l -5.905,-15.949 h 1.833 4.072 57.494 3.573 1.956 V 24.045 L 0.956,-11.226 H 6.122 V 90.606 L 0,80.737 Z" /></g><g
           transform="translate(143.2222,144.335)"
           id="g28"><path
             id="path30"
             style="fill:#f68712;fill-opacity:1;fill-rule:nonzero;stroke:none"
             d="m 0,0 c 1.17,2.615 2.924,4.677 5.262,6.187 2.338,1.508 5.167,2.263 8.483,2.263 3.316,0 6.144,-0.755 8.483,-2.263 2.337,-1.51 4.091,-3.572 5.262,-6.187 1.168,-2.615 1.754,-5.581 1.754,-8.897 0,-3.316 -0.586,-6.282 -1.754,-8.897 -1.171,-2.616 -2.925,-4.679 -5.262,-6.187 -2.339,-1.51 -5.167,-2.263 -8.483,-2.263 -3.316,0 -6.145,0.753 -8.483,2.263 -2.338,1.508 -4.092,3.571 -5.262,6.187 -1.169,2.615 -1.754,5.581 -1.754,8.897 0,3.316 0.585,6.282 1.754,8.897 m 2.361,-29.243 c 3.337,-1.913 7.131,-2.87 11.384,-2.87 4.252,0 8.046,0.957 11.384,2.87 3.337,1.914 5.942,4.624 7.813,8.132 1.871,3.507 2.807,7.579 2.807,12.214 0,4.634 -0.936,8.706 -2.807,12.213 -1.871,3.508 -4.476,6.219 -7.813,8.132 -3.338,1.914 -7.132,2.87 -11.384,2.87 -4.253,0 -8.047,-0.956 -11.384,-2.87 -3.339,-1.913 -5.944,-4.624 -7.813,-8.132 -1.872,-3.507 -2.807,-7.579 -2.807,-12.213 0,-4.635 0.935,-8.707 2.807,-12.214 1.869,-3.508 4.474,-6.218 7.813,-8.132" /></g><g
           transform="translate(229.2266,252.9512)"
           id="g32"><path
             id="path34"
             style="fill:#362e2d;fill-opacity:1;fill-rule:nonzero;stroke:none"
             d="M 0,0 H -3.507 V 1.479 H 5.141 V 0 H 1.634 V -10.556 H 0 Z" /></g><g
           transform="translate(231.832,226.4917)"
           id="g36"><path
             id="path38"
             style="fill:#362e2d;fill-opacity:1;fill-rule:nonzero;stroke:none"
             d="M 0,0 -1.788,5.021 -3.576,0 Z m 0.516,-1.479 h -4.608 l -1.151,-3.249 h -1.72 l 4.316,12.036 h 1.719 L 3.387,-4.728 H 1.668 Z" /></g><g
           transform="translate(232.2881,203.1187)"
           id="g40"><path
             id="path42"
             style="fill:#362e2d;fill-opacity:1;fill-rule:nonzero;stroke:none"
             d="m 0,0 c 0.389,0.338 0.584,0.84 0.584,1.505 0,1.375 -0.728,2.062 -2.184,2.062 H -4.367 V -0.507 H -1.6 c 0.677,0 1.209,0.169 1.6,0.507 m -4.367,5.046 h 1.96 c 0.641,0 1.132,0.129 1.47,0.388 0.337,0.257 0.506,0.718 0.506,1.383 0,0.664 -0.169,1.126 -0.506,1.384 -0.338,0.258 -0.829,0.387 -1.47,0.387 h -1.96 z M 1.771,3.508 C 2.172,2.986 2.372,2.301 2.372,1.453 2.372,0.387 2.031,-0.452 1.35,-1.065 0.667,-1.679 -0.27,-1.985 -1.462,-1.985 h -4.539 v 12.034 h 3.8 c 1.1,0 1.951,-0.246 2.553,-0.739 C 0.954,8.817 1.255,8.083 1.255,7.109 1.255,6.536 1.151,6.026 0.945,5.579 0.739,5.132 0.435,4.794 0.034,4.565 0.79,4.382 1.369,4.029 1.771,3.508" /></g><g
           transform="translate(227.1123,192.5366)"
           id="g44"><path
             id="path46"
             style="fill:#362e2d;fill-opacity:1;fill-rule:nonzero;stroke:none"
             d="m 0,0 h 1.634 v -10.556 h 5.518 v -1.478 H 0 Z" /></g><g
           transform="translate(226.6572,171.9062)"
           id="g48"><path
             id="path50"
             style="fill:#362e2d;fill-opacity:1;fill-rule:nonzero;stroke:none"
             d="M 0,0 H 7.342 V -1.479 H 1.634 V -5.003 H 6.173 V -6.481 H 1.634 v -4.075 h 5.862 v -1.478 H 0 Z" /></g><g
           transform="translate(229.2266,149.7969)"
           id="g52"><path
             id="path54"
             style="fill:#656263;fill-opacity:1;fill-rule:nonzero;stroke:none"
             d="M 0,0 H -3.507 V 1.479 H 5.141 V 0 H 1.634 V -10.556 H 0 Z" /></g><g
           transform="translate(232.3301,120.5615)"
           id="g56"><path
             id="path58"
             style="fill:#656263;fill-opacity:1;fill-rule:nonzero;stroke:none"
             d="M 0,0 C 0.631,0.407 1.104,0.963 1.419,1.668 1.733,2.373 1.892,3.172 1.892,4.066 1.892,4.96 1.733,5.76 1.419,6.465 1.104,7.169 0.631,7.726 0,8.132 c -0.63,0.407 -1.393,0.61 -2.286,0.61 -0.895,0 -1.656,-0.203 -2.287,-0.61 C -5.203,7.726 -5.676,7.169 -5.991,6.465 -6.307,5.76 -6.464,4.96 -6.464,4.066 c 0,-0.894 0.157,-1.693 0.473,-2.398 0.315,-0.705 0.788,-1.261 1.418,-1.668 0.631,-0.407 1.392,-0.61 2.287,-0.61 0.893,0 1.656,0.203 2.286,0.61 m -5.355,-1.418 c -0.9,0.516 -1.602,1.246 -2.106,2.191 -0.505,0.947 -0.757,2.043 -0.757,3.293 0,1.249 0.252,2.347 0.757,3.292 0.504,0.946 1.206,1.677 2.106,2.193 0.9,0.515 1.922,0.773 3.069,0.773 1.145,0 2.169,-0.258 3.068,-0.773 C 1.683,9.035 2.384,8.304 2.889,7.358 3.393,6.413 3.646,5.315 3.646,4.066 3.646,2.816 3.393,1.72 2.889,0.773 2.384,-0.172 1.683,-0.902 0.782,-1.418 c -0.899,-0.516 -1.923,-0.773 -3.068,-0.773 -1.147,0 -2.169,0.257 -3.069,0.773" /></g><g
           transform="translate(230.2334,103.6533)"
           id="g60"><path
             id="path62"
             style="fill:#656263;fill-opacity:1;fill-rule:nonzero;stroke:none"
             d="M 0,0 C 0.882,0 1.541,0.2 1.977,0.602 2.412,1.003 2.63,1.616 2.63,2.441 2.63,3.277 2.421,3.896 2.003,4.298 1.584,4.699 0.917,4.899 0,4.899 H -2.012 V 0 Z M -3.731,6.36 H 0.24 c 1.283,0 2.284,-0.311 3,-0.936 C 3.957,4.799 4.315,3.811 4.315,2.458 4.315,1.129 3.954,0.143 3.231,-0.499 2.51,-1.141 1.513,-1.462 0.24,-1.462 h -2.252 v -4.212 h -1.719 z" /></g></g></g></g></svg>